<svg width="369" height="47" viewBox="0 0 369 47" fill="none" xmlns="http://www.w3.org/2000/svg">
<path d="M64.356 18.988C64.804 18.988 65.192 19.132 65.52 19.42C65.848 19.7 66.012 20.12 66.012 20.68V25.12C66.012 26.064 65.796 26.808 65.364 27.352C64.932 27.888 64.304 28.156 63.48 28.156C62.616 28.156 61.96 27.884 61.512 27.34C61.072 26.788 60.852 26.02 60.852 25.036C60.852 24.476 60.944 23.96 61.128 23.488C61.32 23.008 61.596 22.624 61.956 22.336C62.324 22.048 62.764 21.904 63.276 21.904C63.924 21.904 64.5 22.184 65.004 22.744V20.74C65.004 20.1 64.728 19.78 64.176 19.78C63.936 19.78 63.736 19.852 63.576 19.996C63.424 20.132 63.348 20.34 63.348 20.62V21.124L62.376 21.196V20.728C62.376 20.112 62.136 19.804 61.656 19.804C61.432 19.804 61.18 19.868 60.9 19.996L60.588 19.288C60.924 19.088 61.28 18.988 61.656 18.988C62.328 18.988 62.736 19.316 62.88 19.972C63.08 19.316 63.572 18.988 64.356 18.988ZM63.48 27.34C63.992 27.34 64.372 27.14 64.62 26.74C64.876 26.34 65.004 25.776 65.004 25.048V23.596C64.788 23.316 64.552 23.1 64.296 22.948C64.048 22.796 63.764 22.72 63.444 22.72C62.972 22.72 62.6 22.928 62.328 23.344C62.064 23.752 61.932 24.316 61.932 25.036C61.932 25.812 62.056 26.392 62.304 26.776C62.56 27.152 62.952 27.34 63.48 27.34ZM69.9772 21.544C70.4332 21.544 70.8372 21.64 71.1892 21.832C71.5492 22.024 71.8292 22.3 72.0292 22.66C72.2292 23.02 72.3292 23.44 72.3292 23.92V27.964C72.3292 28.74 72.1132 29.368 71.6812 29.848C71.2492 30.328 70.6532 30.568 69.8932 30.568C69.3492 30.568 68.8932 30.456 68.5252 30.232C68.1572 30.016 67.8812 29.728 67.6972 29.368C67.5212 29.016 67.4332 28.628 67.4332 28.204C67.4332 27.684 67.5612 27.168 67.8172 26.656L68.6812 26.884C68.5292 27.292 68.4532 27.732 68.4532 28.204C68.4532 28.676 68.5772 29.052 68.8252 29.332C69.0812 29.612 69.4372 29.752 69.8932 29.752C70.3892 29.752 70.7492 29.58 70.9732 29.236C71.2052 28.9 71.3212 28.436 71.3212 27.844V23.98C71.3212 23.484 71.2132 23.092 70.9972 22.804C70.7812 22.508 70.4412 22.36 69.9772 22.36C69.5212 22.36 69.1812 22.484 68.9572 22.732C68.7412 22.98 68.6332 23.288 68.6332 23.656C68.6332 23.96 68.6892 24.288 68.8012 24.64L67.8892 24.832C67.6972 24.432 67.6012 24.04 67.6012 23.656C67.6012 23.24 67.7052 22.872 67.9132 22.552C68.1212 22.232 68.4052 21.984 68.7652 21.808C69.1332 21.632 69.5372 21.544 69.9772 21.544ZM74.1039 24.52C74.1039 23.936 74.2039 23.42 74.4039 22.972C74.6119 22.524 74.9039 22.176 75.2799 21.928C75.6639 21.672 76.1199 21.544 76.6479 21.544C77.4479 21.544 78.0679 21.812 78.5079 22.348C78.9559 22.876 79.1799 23.6 79.1799 24.52C79.1799 25.184 79.1079 25.796 78.9639 26.356C78.8279 26.916 78.6479 27.464 78.4239 28H77.4279C77.6679 27.376 77.8479 26.784 77.9679 26.224C78.0959 25.664 78.1599 25.096 78.1599 24.52C78.1599 23.8 78.0239 23.26 77.7519 22.9C77.4879 22.54 77.1199 22.36 76.6479 22.36C76.1679 22.36 75.7919 22.544 75.5199 22.912C75.2559 23.272 75.1239 23.808 75.1239 24.52C75.1239 25.08 75.1839 25.64 75.3039 26.2C75.4239 26.76 75.6039 27.36 75.8439 28H74.8479C74.6239 27.456 74.4439 26.904 74.3079 26.344C74.1719 25.784 74.1039 25.176 74.1039 24.52ZM85.4773 21.688V28.072C85.4773 28.536 85.3813 28.956 85.1893 29.332C84.9973 29.716 84.7173 30.016 84.3493 30.232C83.9813 30.456 83.5453 30.568 83.0413 30.568C82.5213 30.568 82.0773 30.468 81.7093 30.268C81.3413 30.076 81.0613 29.816 80.8693 29.488C80.6853 29.168 80.5933 28.816 80.5933 28.432C80.5933 28.024 80.6933 27.632 80.8933 27.256L81.7453 27.484C81.6573 27.764 81.6133 28.064 81.6133 28.384C81.6133 28.8 81.7373 29.132 81.9853 29.38C82.2413 29.628 82.5933 29.752 83.0413 29.752C83.5293 29.752 83.8893 29.584 84.1213 29.248C84.3533 28.92 84.4693 28.508 84.4693 28.012V25.756C84.0133 26.236 83.4573 26.476 82.8013 26.476C82.4013 26.476 82.0333 26.38 81.6973 26.188C81.3693 25.996 81.1053 25.712 80.9053 25.336C80.7133 24.96 80.6173 24.512 80.6173 23.992C80.6173 23.536 80.6653 23.128 80.7613 22.768C80.8653 22.408 81.0013 22.048 81.1693 21.688H82.1293C81.8173 22.448 81.6613 23.204 81.6613 23.956C81.6613 24.476 81.7693 24.892 81.9853 25.204C82.2013 25.508 82.5333 25.66 82.9813 25.66C83.5653 25.66 84.0613 25.404 84.4693 24.892V21.688H85.4773ZM90.6333 25.516C91.1373 25.596 91.5613 25.84 91.9053 26.248C92.2573 26.656 92.4333 27.216 92.4333 27.928C92.4333 28.424 92.3253 28.872 92.1093 29.272C91.9013 29.672 91.5973 29.988 91.1973 30.22C90.8053 30.452 90.3413 30.568 89.8053 30.568C89.2453 30.568 88.7733 30.464 88.3893 30.256C88.0133 30.048 87.7293 29.768 87.5373 29.416C87.3533 29.072 87.2613 28.688 87.2613 28.264C87.2613 27.816 87.3773 27.372 87.6093 26.932L88.4613 27.16C88.3413 27.52 88.2813 27.884 88.2813 28.252C88.2813 28.716 88.4093 29.08 88.6653 29.344C88.9293 29.616 89.3093 29.752 89.8053 29.752C90.3493 29.752 90.7453 29.576 90.9933 29.224C91.2493 28.872 91.3773 28.404 91.3773 27.82C91.3773 27.276 91.2413 26.832 90.9693 26.488C90.6973 26.144 90.3013 25.972 89.7813 25.972H89.2893L89.3493 25.156H89.7933C90.1773 25.156 90.4973 25.036 90.7533 24.796C91.0173 24.548 91.1493 24.192 91.1493 23.728C91.1493 23.32 91.0333 22.992 90.8013 22.744C90.5693 22.488 90.2253 22.36 89.7693 22.36C89.3213 22.36 88.9773 22.48 88.7373 22.72C88.4973 22.96 88.3773 23.268 88.3773 23.644C88.3773 23.892 88.4173 24.148 88.4973 24.412L87.5853 24.58C87.4333 24.252 87.3573 23.92 87.3573 23.584C87.3573 23.192 87.4613 22.844 87.6693 22.54C87.8773 22.228 88.1613 21.984 88.5213 21.808C88.8893 21.632 89.3053 21.544 89.7693 21.544C90.2413 21.544 90.6613 21.636 91.0293 21.82C91.3973 22.004 91.6813 22.26 91.8813 22.588C92.0893 22.908 92.1933 23.268 92.1933 23.668C92.1933 24.172 92.0493 24.58 91.7613 24.892C91.4813 25.196 91.1053 25.404 90.6333 25.516ZM96.502 21.688C96.502 21.976 96.574 22.244 96.718 22.492C96.862 22.732 97.086 23.04 97.39 23.416C97.766 23.872 98.05 24.28 98.242 24.64C98.442 25 98.542 25.416 98.542 25.888C98.542 26.344 98.434 26.744 98.218 27.088C98.002 27.432 97.706 27.696 97.33 27.88C96.962 28.064 96.546 28.156 96.082 28.156C95.562 28.156 95.118 28.056 94.75 27.856C94.39 27.656 94.118 27.392 93.934 27.064C93.75 26.728 93.658 26.368 93.658 25.984C93.658 25.528 93.766 25.104 93.982 24.712L94.834 24.952C94.722 25.248 94.666 25.584 94.666 25.96C94.666 26.384 94.794 26.724 95.05 26.98C95.306 27.228 95.65 27.352 96.082 27.352C96.546 27.352 96.894 27.216 97.126 26.944C97.358 26.672 97.474 26.312 97.474 25.864C97.474 25.496 97.394 25.176 97.234 24.904C97.082 24.624 96.85 24.3 96.538 23.932C96.194 23.532 95.934 23.172 95.758 22.852C95.582 22.532 95.494 22.144 95.494 21.688H96.502ZM102.99 21.544C103.758 21.544 104.35 21.852 104.766 22.468C105.19 23.084 105.402 23.892 105.402 24.892C105.402 25.916 105.166 26.716 104.694 27.292C104.23 27.868 103.594 28.156 102.786 28.156C101.954 28.156 101.322 27.896 100.89 27.376C100.466 26.848 100.25 26.084 100.242 25.084V20.8C100.242 20.224 100.422 19.78 100.782 19.468C101.142 19.148 101.61 18.988 102.186 18.988C102.482 18.988 102.838 19.02 103.254 19.084C103.59 19.132 103.826 19.156 103.962 19.156C104.218 19.156 104.51 19.1 104.838 18.988L104.958 19.72C104.638 19.864 104.31 19.936 103.974 19.936C103.686 19.936 103.386 19.908 103.074 19.852C102.722 19.804 102.446 19.78 102.246 19.78C101.918 19.78 101.67 19.872 101.502 20.056C101.334 20.24 101.25 20.508 101.25 20.86V22.384C101.49 22.12 101.75 21.916 102.03 21.772C102.31 21.62 102.63 21.544 102.99 21.544ZM102.786 27.34C103.306 27.34 103.69 27.14 103.938 26.74C104.194 26.34 104.322 25.724 104.322 24.892C104.322 24.044 104.19 23.412 103.926 22.996C103.67 22.572 103.302 22.36 102.822 22.36C102.494 22.36 102.202 22.436 101.946 22.588C101.698 22.74 101.466 22.96 101.25 23.248V24.952C101.25 25.768 101.374 26.372 101.622 26.764C101.878 27.148 102.266 27.34 102.786 27.34ZM109.481 21.544C109.937 21.544 110.341 21.64 110.693 21.832C111.053 22.024 111.333 22.3 111.533 22.66C111.733 23.02 111.833 23.44 111.833 23.92V27.964C111.833 28.74 111.617 29.368 111.185 29.848C110.753 30.328 110.157 30.568 109.397 30.568C108.853 30.568 108.397 30.456 108.029 30.232C107.661 30.016 107.385 29.728 107.201 29.368C107.025 29.016 106.937 28.628 106.937 28.204C106.937 27.684 107.065 27.168 107.321 26.656L108.185 26.884C108.033 27.292 107.957 27.732 107.957 28.204C107.957 28.676 108.081 29.052 108.329 29.332C108.585 29.612 108.941 29.752 109.397 29.752C109.893 29.752 110.253 29.58 110.477 29.236C110.709 28.9 110.825 28.436 110.825 27.844V23.98C110.825 23.484 110.717 23.092 110.501 22.804C110.285 22.508 109.945 22.36 109.481 22.36C109.025 22.36 108.685 22.484 108.461 22.732C108.245 22.98 108.137 23.288 108.137 23.656C108.137 23.96 108.193 24.288 108.305 24.64L107.393 24.832C107.201 24.432 107.105 24.04 107.105 23.656C107.105 23.24 107.209 22.872 107.417 22.552C107.625 22.232 107.909 21.984 108.269 21.808C108.637 21.632 109.041 21.544 109.481 21.544ZM117.059 19.144L118.067 18.988V25.084C118.067 25.844 118.187 26.416 118.427 26.8C118.675 27.176 119.075 27.364 119.627 27.364C120.115 27.364 120.487 27.196 120.743 26.86C120.999 26.524 121.127 26.068 121.127 25.492C121.127 25.084 121.067 24.736 120.947 24.448C120.827 24.16 120.647 23.836 120.407 23.476C120.183 23.132 120.015 22.836 119.903 22.588C119.799 22.332 119.747 22.032 119.747 21.688H120.755C120.755 21.936 120.799 22.16 120.887 22.36C120.983 22.552 121.131 22.796 121.331 23.092C121.603 23.484 121.811 23.856 121.955 24.208C122.099 24.552 122.171 24.98 122.171 25.492C122.171 25.996 122.075 26.448 121.883 26.848C121.691 27.248 121.403 27.568 121.019 27.808C120.635 28.04 120.167 28.156 119.615 28.156C118.775 28.156 118.139 27.904 117.707 27.4C117.275 26.896 117.059 26.148 117.059 25.156V19.144ZM126.291 21.688C126.291 21.976 126.363 22.244 126.507 22.492C126.651 22.732 126.875 23.04 127.179 23.416C127.555 23.872 127.839 24.28 128.031 24.64C128.231 25 128.331 25.416 128.331 25.888C128.331 26.344 128.223 26.744 128.007 27.088C127.791 27.432 127.495 27.696 127.119 27.88C126.751 28.064 126.335 28.156 125.871 28.156C125.351 28.156 124.907 28.056 124.539 27.856C124.179 27.656 123.907 27.392 123.723 27.064C123.539 26.728 123.447 26.368 123.447 25.984C123.447 25.528 123.555 25.104 123.771 24.712L124.623 24.952C124.511 25.248 124.455 25.584 124.455 25.96C124.455 26.384 124.583 26.724 124.839 26.98C125.095 27.228 125.439 27.352 125.871 27.352C126.335 27.352 126.683 27.216 126.915 26.944C127.147 26.672 127.263 26.312 127.263 25.864C127.263 25.496 127.183 25.176 127.023 24.904C126.871 24.624 126.639 24.3 126.327 23.932C125.983 23.532 125.723 23.172 125.547 22.852C125.371 22.532 125.283 22.144 125.283 21.688H126.291ZM134.951 19.144V25.036C134.951 26.036 134.727 26.808 134.279 27.352C133.831 27.888 133.207 28.156 132.407 28.156C131.567 28.156 130.919 27.872 130.463 27.304C130.015 26.736 129.791 25.94 129.791 24.916C129.791 24.268 129.887 23.692 130.079 23.188C130.271 22.676 130.551 22.276 130.919 21.988C131.287 21.692 131.731 21.544 132.251 21.544C132.875 21.544 133.439 21.824 133.943 22.384V18.988L134.951 19.144ZM132.407 27.34C132.927 27.34 133.311 27.144 133.559 26.752C133.815 26.36 133.943 25.756 133.943 24.94V23.248C133.727 22.96 133.491 22.74 133.235 22.588C132.987 22.436 132.703 22.36 132.383 22.36C131.903 22.36 131.531 22.576 131.267 23.008C131.003 23.432 130.871 24.068 130.871 24.916C130.871 25.74 130.995 26.352 131.243 26.752C131.499 27.144 131.887 27.34 132.407 27.34ZM136.729 24.52C136.729 23.936 136.829 23.42 137.029 22.972C137.237 22.524 137.529 22.176 137.905 21.928C138.289 21.672 138.745 21.544 139.273 21.544C140.073 21.544 140.693 21.812 141.133 22.348C141.581 22.876 141.805 23.6 141.805 24.52C141.805 25.184 141.733 25.796 141.589 26.356C141.453 26.916 141.273 27.464 141.049 28H140.053C140.293 27.376 140.473 26.784 140.593 26.224C140.721 25.664 140.785 25.096 140.785 24.52C140.785 23.8 140.649 23.26 140.377 22.9C140.113 22.54 139.745 22.36 139.273 22.36C138.793 22.36 138.417 22.544 138.145 22.912C137.881 23.272 137.749 23.808 137.749 24.52C137.749 25.08 137.809 25.64 137.929 26.2C138.049 26.76 138.229 27.36 138.469 28H137.473C137.249 27.456 137.069 26.904 136.933 26.344C136.797 25.784 136.729 25.176 136.729 24.52ZM145.762 21.544C146.218 21.544 146.622 21.64 146.974 21.832C147.334 22.024 147.614 22.3 147.814 22.66C148.014 23.02 148.114 23.44 148.114 23.92V27.964C148.114 28.74 147.898 29.368 147.466 29.848C147.034 30.328 146.438 30.568 145.678 30.568C145.134 30.568 144.678 30.456 144.31 30.232C143.942 30.016 143.666 29.728 143.482 29.368C143.306 29.016 143.218 28.628 143.218 28.204C143.218 27.684 143.346 27.168 143.602 26.656L144.466 26.884C144.314 27.292 144.238 27.732 144.238 28.204C144.238 28.676 144.362 29.052 144.61 29.332C144.866 29.612 145.222 29.752 145.678 29.752C146.174 29.752 146.534 29.58 146.758 29.236C146.99 28.9 147.106 28.436 147.106 27.844V23.98C147.106 23.484 146.998 23.092 146.782 22.804C146.566 22.508 146.226 22.36 145.762 22.36C145.306 22.36 144.966 22.484 144.742 22.732C144.526 22.98 144.418 23.288 144.418 23.656C144.418 23.96 144.474 24.288 144.586 24.64L143.674 24.832C143.482 24.432 143.386 24.04 143.386 23.656C143.386 23.24 143.49 22.872 143.698 22.552C143.906 22.232 144.19 21.984 144.55 21.808C144.918 21.632 145.322 21.544 145.762 21.544ZM153.165 21.592C153.877 21.712 154.425 22.056 154.809 22.624C155.193 23.192 155.385 23.928 155.385 24.832C155.385 25.84 155.137 26.644 154.641 27.244C154.153 27.844 153.473 28.144 152.601 28.144C151.729 28.144 151.049 27.852 150.561 27.268C150.073 26.676 149.829 25.872 149.829 24.856C149.829 23.92 150.041 23.16 150.465 22.576C150.897 21.984 151.497 21.648 152.265 21.568C152.297 21.408 152.313 21.252 152.313 21.1C152.313 20.948 152.277 20.82 152.205 20.716C152.133 20.604 152.025 20.476 151.881 20.332C151.689 20.14 151.541 19.964 151.437 19.804C151.341 19.636 151.293 19.416 151.293 19.144L152.289 19.036C152.289 19.22 152.329 19.38 152.409 19.516C152.489 19.652 152.609 19.808 152.769 19.984C152.945 20.168 153.077 20.336 153.165 20.488C153.253 20.64 153.297 20.828 153.297 21.052C153.297 21.22 153.253 21.4 153.165 21.592ZM152.601 27.328C153.153 27.328 153.573 27.12 153.861 26.704C154.157 26.288 154.305 25.664 154.305 24.832C154.305 24.008 154.161 23.392 153.873 22.984C153.585 22.568 153.165 22.36 152.613 22.36C152.061 22.36 151.637 22.568 151.341 22.984C151.053 23.4 150.909 24.024 150.909 24.856C150.909 25.68 151.053 26.3 151.341 26.716C151.629 27.124 152.049 27.328 152.601 27.328ZM157.582 28C157.358 27.464 157.182 26.92 157.054 26.368C156.926 25.808 156.862 25.196 156.862 24.532C156.862 23.516 157.062 22.764 157.462 22.276C157.862 21.788 158.37 21.544 158.986 21.544C159.474 21.544 159.858 21.66 160.138 21.892C160.418 22.116 160.61 22.468 160.714 22.948C160.786 22.484 160.966 22.136 161.254 21.904C161.542 21.664 161.906 21.544 162.346 21.544C162.994 21.544 163.522 21.792 163.93 22.288C164.346 22.784 164.554 23.532 164.554 24.532C164.554 25.188 164.486 25.796 164.35 26.356C164.214 26.908 164.034 27.456 163.81 28H162.802C163.058 27.32 163.242 26.716 163.354 26.188C163.474 25.66 163.534 25.112 163.534 24.544C163.534 23.088 163.106 22.36 162.25 22.36C161.538 22.36 161.182 22.848 161.182 23.824V25.936L160.222 26.044V23.824C160.222 23.264 160.126 22.88 159.934 22.672C159.75 22.464 159.482 22.36 159.13 22.36C158.722 22.36 158.41 22.536 158.194 22.888C157.986 23.232 157.882 23.776 157.882 24.52C157.882 25.112 157.934 25.676 158.038 26.212C158.15 26.74 158.33 27.336 158.578 28H157.582ZM169.535 19.144L170.543 18.988V25.084C170.543 25.844 170.663 26.416 170.903 26.8C171.151 27.176 171.551 27.364 172.103 27.364C172.591 27.364 172.963 27.196 173.219 26.86C173.475 26.524 173.603 26.068 173.603 25.492C173.603 25.084 173.543 24.736 173.423 24.448C173.303 24.16 173.123 23.836 172.883 23.476C172.659 23.132 172.491 22.836 172.379 22.588C172.275 22.332 172.223 22.032 172.223 21.688H173.231C173.231 21.936 173.275 22.16 173.363 22.36C173.459 22.552 173.607 22.796 173.807 23.092C174.079 23.484 174.287 23.856 174.431 24.208C174.575 24.552 174.647 24.98 174.647 25.492C174.647 25.996 174.551 26.448 174.359 26.848C174.167 27.248 173.879 27.568 173.495 27.808C173.111 28.04 172.643 28.156 172.091 28.156C171.251 28.156 170.615 27.904 170.183 27.4C169.751 26.896 169.535 26.148 169.535 25.156V19.144ZM176.116 24.52C176.116 23.936 176.216 23.42 176.416 22.972C176.624 22.524 176.916 22.176 177.292 21.928C177.676 21.672 178.132 21.544 178.66 21.544C179.46 21.544 180.08 21.812 180.52 22.348C180.968 22.876 181.192 23.6 181.192 24.52C181.192 25.184 181.12 25.796 180.976 26.356C180.84 26.916 180.66 27.464 180.436 28H179.44C179.68 27.376 179.86 26.784 179.98 26.224C180.108 25.664 180.172 25.096 180.172 24.52C180.172 23.8 180.036 23.26 179.764 22.9C179.5 22.54 179.132 22.36 178.66 22.36C178.18 22.36 177.804 22.544 177.532 22.912C177.268 23.272 177.136 23.808 177.136 24.52C177.136 25.08 177.196 25.64 177.316 26.2C177.436 26.76 177.616 27.36 177.856 28H176.86C176.636 27.456 176.456 26.904 176.32 26.344C176.184 25.784 176.116 25.176 176.116 24.52ZM182.725 26.044C182.725 24.724 182.997 23.68 183.541 22.912C184.093 22.136 184.853 21.688 185.821 21.568C185.789 21.28 185.773 20.848 185.773 20.272H186.781C186.781 20.848 186.761 21.28 186.721 21.568C187.705 21.68 188.469 22.116 189.013 22.876C189.565 23.628 189.841 24.68 189.841 26.032C189.841 27 189.693 27.824 189.397 28.504C189.101 29.184 188.685 29.696 188.149 30.04C187.621 30.392 187.001 30.568 186.289 30.568C185.577 30.568 184.953 30.396 184.417 30.052C183.881 29.716 183.465 29.208 183.169 28.528C182.873 27.848 182.725 27.02 182.725 26.044ZM183.805 26.044C183.805 27.332 184.025 28.272 184.465 28.864C184.905 29.456 185.513 29.752 186.289 29.752C187.937 29.752 188.761 28.512 188.761 26.032C188.761 24.864 188.589 23.984 188.245 23.392C187.901 22.8 187.389 22.444 186.709 22.324C186.757 22.516 186.781 22.752 186.781 23.032V25.936L185.773 26.044V23.056C185.773 22.728 185.793 22.488 185.833 22.336C185.169 22.456 184.665 22.816 184.321 23.416C183.977 24.008 183.805 24.884 183.805 26.044ZM196.137 21.688V28.072C196.137 28.536 196.041 28.956 195.849 29.332C195.657 29.716 195.377 30.016 195.009 30.232C194.641 30.456 194.205 30.568 193.701 30.568C193.181 30.568 192.737 30.468 192.369 30.268C192.001 30.076 191.721 29.816 191.529 29.488C191.345 29.168 191.253 28.816 191.253 28.432C191.253 28.024 191.353 27.632 191.553 27.256L192.405 27.484C192.317 27.764 192.273 28.064 192.273 28.384C192.273 28.8 192.397 29.132 192.645 29.38C192.901 29.628 193.253 29.752 193.701 29.752C194.189 29.752 194.549 29.584 194.781 29.248C195.013 28.92 195.129 28.508 195.129 28.012V25.756C194.673 26.236 194.117 26.476 193.461 26.476C193.061 26.476 192.693 26.38 192.357 26.188C192.029 25.996 191.765 25.712 191.565 25.336C191.373 24.96 191.277 24.512 191.277 23.992C191.277 23.536 191.325 23.128 191.421 22.768C191.525 22.408 191.661 22.048 191.829 21.688H192.789C192.477 22.448 192.321 23.204 192.321 23.956C192.321 24.476 192.429 24.892 192.645 25.204C192.861 25.508 193.193 25.66 193.641 25.66C194.225 25.66 194.721 25.404 195.129 24.892V21.688H196.137ZM201.293 25.516C201.797 25.596 202.221 25.84 202.565 26.248C202.917 26.656 203.093 27.216 203.093 27.928C203.093 28.424 202.985 28.872 202.769 29.272C202.561 29.672 202.257 29.988 201.857 30.22C201.465 30.452 201.001 30.568 200.465 30.568C199.905 30.568 199.433 30.464 199.049 30.256C198.673 30.048 198.389 29.768 198.197 29.416C198.013 29.072 197.921 28.688 197.921 28.264C197.921 27.816 198.037 27.372 198.269 26.932L199.121 27.16C199.001 27.52 198.941 27.884 198.941 28.252C198.941 28.716 199.069 29.08 199.325 29.344C199.589 29.616 199.969 29.752 200.465 29.752C201.009 29.752 201.405 29.576 201.653 29.224C201.909 28.872 202.037 28.404 202.037 27.82C202.037 27.276 201.901 26.832 201.629 26.488C201.357 26.144 200.961 25.972 200.441 25.972H199.949L200.009 25.156H200.453C200.837 25.156 201.157 25.036 201.413 24.796C201.677 24.548 201.809 24.192 201.809 23.728C201.809 23.32 201.693 22.992 201.461 22.744C201.229 22.488 200.885 22.36 200.429 22.36C199.981 22.36 199.637 22.48 199.397 22.72C199.157 22.96 199.037 23.268 199.037 23.644C199.037 23.892 199.077 24.148 199.157 24.412L198.245 24.58C198.093 24.252 198.017 23.92 198.017 23.584C198.017 23.192 198.121 22.844 198.329 22.54C198.537 22.228 198.821 21.984 199.181 21.808C199.549 21.632 199.965 21.544 200.429 21.544C200.901 21.544 201.321 21.636 201.689 21.82C202.057 22.004 202.341 22.26 202.541 22.588C202.749 22.908 202.853 23.268 202.853 23.668C202.853 24.172 202.709 24.58 202.421 24.892C202.141 25.196 201.765 25.404 201.293 25.516ZM207.162 21.688C207.162 21.976 207.234 22.244 207.378 22.492C207.522 22.732 207.746 23.04 208.05 23.416C208.426 23.872 208.71 24.28 208.902 24.64C209.102 25 209.202 25.416 209.202 25.888C209.202 26.344 209.094 26.744 208.878 27.088C208.662 27.432 208.366 27.696 207.99 27.88C207.622 28.064 207.206 28.156 206.742 28.156C206.222 28.156 205.778 28.056 205.41 27.856C205.05 27.656 204.778 27.392 204.594 27.064C204.41 26.728 204.318 26.368 204.318 25.984C204.318 25.528 204.426 25.104 204.642 24.712L205.494 24.952C205.382 25.248 205.326 25.584 205.326 25.96C205.326 26.384 205.454 26.724 205.71 26.98C205.966 27.228 206.31 27.352 206.742 27.352C207.206 27.352 207.554 27.216 207.786 26.944C208.018 26.672 208.134 26.312 208.134 25.864C208.134 25.496 208.054 25.176 207.894 24.904C207.742 24.624 207.51 24.3 207.198 23.932C206.854 23.532 206.594 23.172 206.418 22.852C206.242 22.532 206.154 22.144 206.154 21.688H207.162Z" fill="black" fill-opacity="0.5"/>
<path d="M0.5 2C0.5 1.17157 1.17157 0.5 2 0.5H367C367.828 0.5 368.5 1.17157 368.5 2V45C368.5 45.8284 367.828 46.5 367 46.5H1.99999C1.17157 46.5 0.5 45.8284 0.5 45V2Z" stroke="black"/>
<path d="M23.9167 30.5833C28.7031 30.5833 32.5833 26.7031 32.5833 21.9167C32.5833 17.1302 28.7031 13.25 23.9167 13.25C19.1302 13.25 15.25 17.1302 15.25 21.9167C15.25 26.7031 19.1302 30.5833 23.9167 30.5833Z" stroke="black" stroke-opacity="0.85" stroke-width="2" stroke-linecap="round" stroke-linejoin="round"/>
<path d="M34.7501 32.75L30.0376 28.0375" stroke="black" stroke-opacity="0.85" stroke-width="2" stroke-linecap="round" stroke-linejoin="round"/>
</svg>
